<svg xmlns="http://www.w3.org/2000/svg" viewBox="0 0 108 108" width="512" height="512">
  <defs>
    <linearGradient id="bgGrad" x1="0%" y1="0%" x2="100%" y2="100%">
      <stop offset="0%" stop-color="#25262B"/>
      <stop offset="100%" stop-color="#0B0C0E"/>
    </linearGradient>
  </defs>
  <!-- Background -->
  <rect width="108" height="108" rx="24" fill="url(#bgGrad)"/>
  
  <!-- Outer Fintech Shield Border -->
  <rect x="16" y="16" width="76" height="76" rx="8" fill="none" stroke="#FF9F0A" stroke-width="1.5" stroke-linecap="round"/>

  <!-- Inner Plate Shield -->
  <rect x="20" y="20" width="68" height="68" rx="6" fill="#1C1C1E"/>

  <!-- Stylized Monogram R -->
  <path d="M38 34v30" stroke="#FFFFFF" stroke-width="5" stroke-linecap="round" stroke-linejoin="round" fill="none"/>
  <path d="M38 34h10a5.5 5.5 0 0 1 5.5 5.5v0a5.5 5.5 0 0 1 -5.5 5.5H38" stroke="#FFFFFF" stroke-width="5" stroke-linecap="round" stroke-linejoin="round" fill="none"/>
  <path d="M45 45l11 19" stroke="#FFFFFF" stroke-width="5" stroke-linecap="round" stroke-linejoin="round" fill="none"/>

  <!-- Stylized Monogram T -->
  <path d="M58 34h18" stroke="#FFFFFF" stroke-width="5" stroke-linecap="round" stroke-linejoin="round" fill="none"/>
  <path d="M67 34v30" stroke="#FFFFFF" stroke-width="5" stroke-linecap="round" stroke-linejoin="round" fill="none"/>

  <!-- Mathematical Fintech Division Accent (÷) in Orange -->
  <path d="M44 76h20" stroke="#FF9F0A" stroke-width="4" stroke-linecap="round" fill="none"/>
  <path d="M54 71h0.01" stroke="#FF9F0A" stroke-width="4" stroke-linecap="round" fill="none"/>
  <path d="M54 81h0.01" stroke="#FF9F0A" stroke-width="4" stroke-linecap="round" fill="none"/>
</svg>
