<svg xmlns="http://www.w3.org/2000/svg" viewBox="0 0 108 108" width="512" height="512">
  <defs>
    <linearGradient id="bgGrad" x1="0%" y1="0%" x2="100%" y2="100%">
      <stop offset="0%" stop-color="#2E2E35"/>
      <stop offset="100%" stop-color="#18181C"/>
    </linearGradient>
  </defs>
  <!-- Background -->
  <rect width="108" height="108" rx="24" fill="url(#bgGrad)"/>
  
  <!-- Outer Fintech Shield Border -->
  <rect x="16" y="16" width="76" height="76" rx="8" fill="#1F1F24" stroke="#FF9F0A" stroke-width="2" stroke-linecap="round"/>

  <!-- Fintech Grid Background Lines -->
  <path d="M34 16v76 M54 16v76 M74 16v76 M16 36h76 M16 56h76" stroke="#2E2E35" stroke-width="1"/>

  <!-- Stylized Monogram R -->
  <path d="M38 34v26 M38 34h11a5 5 0 0 1 5 5v0a5 5 0 0 1 -5 5H38 M46 44l9 16" stroke="#FFFFFF" stroke-width="6" stroke-linecap="round" stroke-linejoin="round" fill="none"/>

  <!-- Stylized Monogram T -->
  <path d="M59 34h16 M67 34v26" stroke="#FFFFFF" stroke-width="6" stroke-linecap="round" stroke-linejoin="round" fill="none"/>

  <!-- Mathematical Fintech Division Accent (÷) in Orange -->
  <path d="M44 74h20" stroke="#FF9F0A" stroke-width="5" stroke-linecap="round" fill="none"/>
  <path d="M54 68h0.01" stroke="#FF9F0A" stroke-width="5" stroke-linecap="round" fill="none"/>
  <path d="M54 80h0.01" stroke="#FF9F0A" stroke-width="5" stroke-linecap="round" fill="none"/>
</svg>
